G04 #@! TF.GenerationSoftware,KiCad,Pcbnew,5.1.7*
G04 #@! TF.CreationDate,2020-11-27T22:32:44-08:00*
G04 #@! TF.ProjectId,PC104-ROM,50433130-342d-4524-9f4d-2e6b69636164,rev?*
G04 #@! TF.SameCoordinates,Original*
G04 #@! TF.FileFunction,Legend,Top*
G04 #@! TF.FilePolarity,Positive*
%FSLAX46Y46*%
G04 Gerber Fmt 4.6, Leading zero omitted, Abs format (unit mm)*
G04 Created by KiCad (PCBNEW 5.1.7) date 2020-11-27 22:32:44*
%MOMM*%
%LPD*%
G01*
G04 APERTURE LIST*
%ADD10C,0.127000*%
%ADD11C,0.254000*%
%ADD12C,0.300000*%
%ADD13C,0.120000*%
%ADD14C,0.150000*%
G04 APERTURE END LIST*
D10*
X134162800Y-96795166D02*
X134162800Y-97430166D01*
X133313714Y-97309214D02*
X133283476Y-97278976D01*
X133253238Y-97188261D01*
X133253238Y-97127785D01*
X133283476Y-97037071D01*
X133343952Y-96976595D01*
X133404428Y-96946357D01*
X133525380Y-96916119D01*
X133616095Y-96916119D01*
X133737047Y-96946357D01*
X133797523Y-96976595D01*
X133858000Y-97037071D01*
X133888238Y-97127785D01*
X133888238Y-97188261D01*
X133858000Y-97278976D01*
X133827761Y-97309214D01*
X134162800Y-97430166D02*
X134162800Y-98034928D01*
X133283476Y-97551119D02*
X133253238Y-97641833D01*
X133253238Y-97793023D01*
X133283476Y-97853500D01*
X133313714Y-97883738D01*
X133374190Y-97913976D01*
X133434666Y-97913976D01*
X133495142Y-97883738D01*
X133525380Y-97853500D01*
X133555619Y-97793023D01*
X133585857Y-97672071D01*
X133616095Y-97611595D01*
X133646333Y-97581357D01*
X133706809Y-97551119D01*
X133767285Y-97551119D01*
X133827761Y-97581357D01*
X133858000Y-97611595D01*
X133888238Y-97672071D01*
X133888238Y-97823261D01*
X133858000Y-97913976D01*
X134162800Y-98034928D02*
X134162800Y-98518738D01*
X134162800Y-98518738D02*
X134162800Y-99123500D01*
X133283476Y-98639690D02*
X133253238Y-98730404D01*
X133253238Y-98881595D01*
X133283476Y-98942071D01*
X133313714Y-98972309D01*
X133374190Y-99002547D01*
X133434666Y-99002547D01*
X133495142Y-98972309D01*
X133525380Y-98942071D01*
X133555619Y-98881595D01*
X133585857Y-98760642D01*
X133616095Y-98700166D01*
X133646333Y-98669928D01*
X133706809Y-98639690D01*
X133767285Y-98639690D01*
X133827761Y-98669928D01*
X133858000Y-98700166D01*
X133888238Y-98760642D01*
X133888238Y-98911833D01*
X133858000Y-99002547D01*
X134162800Y-99123500D02*
X134162800Y-99667785D01*
X133283476Y-99516595D02*
X133253238Y-99456119D01*
X133253238Y-99335166D01*
X133283476Y-99274690D01*
X133343952Y-99244452D01*
X133585857Y-99244452D01*
X133646333Y-99274690D01*
X133676571Y-99335166D01*
X133676571Y-99456119D01*
X133646333Y-99516595D01*
X133585857Y-99546833D01*
X133525380Y-99546833D01*
X133464904Y-99244452D01*
X134162800Y-99667785D02*
X134162800Y-100000404D01*
X133253238Y-99909690D02*
X133283476Y-99849214D01*
X133343952Y-99818976D01*
X133888238Y-99818976D01*
X134162800Y-100000404D02*
X134162800Y-100544690D01*
X133283476Y-100393500D02*
X133253238Y-100333023D01*
X133253238Y-100212071D01*
X133283476Y-100151595D01*
X133343952Y-100121357D01*
X133585857Y-100121357D01*
X133646333Y-100151595D01*
X133676571Y-100212071D01*
X133676571Y-100333023D01*
X133646333Y-100393500D01*
X133585857Y-100423738D01*
X133525380Y-100423738D01*
X133464904Y-100121357D01*
X134162800Y-100544690D02*
X134162800Y-101088976D01*
X133283476Y-100968023D02*
X133253238Y-100907547D01*
X133253238Y-100786595D01*
X133283476Y-100726119D01*
X133313714Y-100695880D01*
X133374190Y-100665642D01*
X133555619Y-100665642D01*
X133616095Y-100695880D01*
X133646333Y-100726119D01*
X133676571Y-100786595D01*
X133676571Y-100907547D01*
X133646333Y-100968023D01*
X134162800Y-101088976D02*
X134162800Y-101451833D01*
X133676571Y-101149452D02*
X133676571Y-101391357D01*
X133888238Y-101240166D02*
X133343952Y-101240166D01*
X133283476Y-101270404D01*
X133253238Y-101330880D01*
X133253238Y-101391357D01*
X155209119Y-124414642D02*
X154822071Y-124559785D01*
X155209119Y-124704928D01*
X155547785Y-124245309D02*
X155644547Y-124245309D01*
X155692928Y-124269500D01*
X155741309Y-124317880D01*
X155765500Y-124414642D01*
X155765500Y-124583976D01*
X155741309Y-124680738D01*
X155692928Y-124729119D01*
X155644547Y-124753309D01*
X155547785Y-124753309D01*
X155499404Y-124729119D01*
X155451023Y-124680738D01*
X155426833Y-124583976D01*
X155426833Y-124414642D01*
X155451023Y-124317880D01*
X155499404Y-124269500D01*
X155547785Y-124245309D01*
X155983214Y-124414642D02*
X155983214Y-124753309D01*
X155983214Y-124463023D02*
X156007404Y-124438833D01*
X156055785Y-124414642D01*
X156128357Y-124414642D01*
X156176738Y-124438833D01*
X156200928Y-124487214D01*
X156200928Y-124753309D01*
X156442833Y-124753309D02*
X156442833Y-124245309D01*
X156442833Y-124438833D02*
X156491214Y-124414642D01*
X156587976Y-124414642D01*
X156636357Y-124438833D01*
X156660547Y-124463023D01*
X156684738Y-124511404D01*
X156684738Y-124656547D01*
X156660547Y-124704928D01*
X156636357Y-124729119D01*
X156587976Y-124753309D01*
X156491214Y-124753309D01*
X156442833Y-124729119D01*
X156975023Y-124753309D02*
X156926642Y-124729119D01*
X156902452Y-124704928D01*
X156878261Y-124656547D01*
X156878261Y-124511404D01*
X156902452Y-124463023D01*
X156926642Y-124438833D01*
X156975023Y-124414642D01*
X157047595Y-124414642D01*
X157095976Y-124438833D01*
X157120166Y-124463023D01*
X157144357Y-124511404D01*
X157144357Y-124656547D01*
X157120166Y-124704928D01*
X157095976Y-124729119D01*
X157047595Y-124753309D01*
X156975023Y-124753309D01*
X157579785Y-124753309D02*
X157579785Y-124487214D01*
X157555595Y-124438833D01*
X157507214Y-124414642D01*
X157410452Y-124414642D01*
X157362071Y-124438833D01*
X157579785Y-124729119D02*
X157531404Y-124753309D01*
X157410452Y-124753309D01*
X157362071Y-124729119D01*
X157337880Y-124680738D01*
X157337880Y-124632357D01*
X157362071Y-124583976D01*
X157410452Y-124559785D01*
X157531404Y-124559785D01*
X157579785Y-124535595D01*
X157821690Y-124753309D02*
X157821690Y-124414642D01*
X157821690Y-124511404D02*
X157845880Y-124463023D01*
X157870071Y-124438833D01*
X157918452Y-124414642D01*
X157966833Y-124414642D01*
X158353880Y-124753309D02*
X158353880Y-124245309D01*
X158353880Y-124729119D02*
X158305500Y-124753309D01*
X158208738Y-124753309D01*
X158160357Y-124729119D01*
X158136166Y-124704928D01*
X158111976Y-124656547D01*
X158111976Y-124511404D01*
X158136166Y-124463023D01*
X158160357Y-124438833D01*
X158208738Y-124414642D01*
X158305500Y-124414642D01*
X158353880Y-124438833D01*
X159152166Y-124487214D02*
X158982833Y-124487214D01*
X158982833Y-124753309D02*
X158982833Y-124245309D01*
X159224738Y-124245309D01*
X159490833Y-124753309D02*
X159442452Y-124729119D01*
X159418261Y-124680738D01*
X159418261Y-124245309D01*
X159902071Y-124753309D02*
X159902071Y-124487214D01*
X159877880Y-124438833D01*
X159829500Y-124414642D01*
X159732738Y-124414642D01*
X159684357Y-124438833D01*
X159902071Y-124729119D02*
X159853690Y-124753309D01*
X159732738Y-124753309D01*
X159684357Y-124729119D01*
X159660166Y-124680738D01*
X159660166Y-124632357D01*
X159684357Y-124583976D01*
X159732738Y-124559785D01*
X159853690Y-124559785D01*
X159902071Y-124535595D01*
X160119785Y-124729119D02*
X160168166Y-124753309D01*
X160264928Y-124753309D01*
X160313309Y-124729119D01*
X160337500Y-124680738D01*
X160337500Y-124656547D01*
X160313309Y-124608166D01*
X160264928Y-124583976D01*
X160192357Y-124583976D01*
X160143976Y-124559785D01*
X160119785Y-124511404D01*
X160119785Y-124487214D01*
X160143976Y-124438833D01*
X160192357Y-124414642D01*
X160264928Y-124414642D01*
X160313309Y-124438833D01*
X160555214Y-124753309D02*
X160555214Y-124245309D01*
X160772928Y-124753309D02*
X160772928Y-124487214D01*
X160748738Y-124438833D01*
X160700357Y-124414642D01*
X160627785Y-124414642D01*
X160579404Y-124438833D01*
X160555214Y-124463023D01*
X155076071Y-121874642D02*
X154689023Y-122019785D01*
X155076071Y-122164928D01*
X155293785Y-122189119D02*
X155366357Y-122213309D01*
X155487309Y-122213309D01*
X155535690Y-122189119D01*
X155559880Y-122164928D01*
X155584071Y-122116547D01*
X155584071Y-122068166D01*
X155559880Y-122019785D01*
X155535690Y-121995595D01*
X155487309Y-121971404D01*
X155390547Y-121947214D01*
X155342166Y-121923023D01*
X155317976Y-121898833D01*
X155293785Y-121850452D01*
X155293785Y-121802071D01*
X155317976Y-121753690D01*
X155342166Y-121729500D01*
X155390547Y-121705309D01*
X155511500Y-121705309D01*
X155584071Y-121729500D01*
X155874357Y-122213309D02*
X155825976Y-122189119D01*
X155801785Y-122164928D01*
X155777595Y-122116547D01*
X155777595Y-121971404D01*
X155801785Y-121923023D01*
X155825976Y-121898833D01*
X155874357Y-121874642D01*
X155946928Y-121874642D01*
X155995309Y-121898833D01*
X156019500Y-121923023D01*
X156043690Y-121971404D01*
X156043690Y-122116547D01*
X156019500Y-122164928D01*
X155995309Y-122189119D01*
X155946928Y-122213309D01*
X155874357Y-122213309D01*
X156479119Y-122189119D02*
X156430738Y-122213309D01*
X156333976Y-122213309D01*
X156285595Y-122189119D01*
X156261404Y-122164928D01*
X156237214Y-122116547D01*
X156237214Y-121971404D01*
X156261404Y-121923023D01*
X156285595Y-121898833D01*
X156333976Y-121874642D01*
X156430738Y-121874642D01*
X156479119Y-121898833D01*
X156696833Y-122213309D02*
X156696833Y-121705309D01*
X156745214Y-122019785D02*
X156890357Y-122213309D01*
X156890357Y-121874642D02*
X156696833Y-122068166D01*
X157301595Y-122189119D02*
X157253214Y-122213309D01*
X157156452Y-122213309D01*
X157108071Y-122189119D01*
X157083880Y-122140738D01*
X157083880Y-121947214D01*
X157108071Y-121898833D01*
X157156452Y-121874642D01*
X157253214Y-121874642D01*
X157301595Y-121898833D01*
X157325785Y-121947214D01*
X157325785Y-121995595D01*
X157083880Y-122043976D01*
X157470928Y-121874642D02*
X157664452Y-121874642D01*
X157543500Y-121705309D02*
X157543500Y-122140738D01*
X157567690Y-122189119D01*
X157616071Y-122213309D01*
X157664452Y-122213309D01*
X158027309Y-122189119D02*
X157978928Y-122213309D01*
X157882166Y-122213309D01*
X157833785Y-122189119D01*
X157809595Y-122140738D01*
X157809595Y-121947214D01*
X157833785Y-121898833D01*
X157882166Y-121874642D01*
X157978928Y-121874642D01*
X158027309Y-121898833D01*
X158051500Y-121947214D01*
X158051500Y-121995595D01*
X157809595Y-122043976D01*
X158486928Y-122213309D02*
X158486928Y-121705309D01*
X158486928Y-122189119D02*
X158438547Y-122213309D01*
X158341785Y-122213309D01*
X158293404Y-122189119D01*
X158269214Y-122164928D01*
X158245023Y-122116547D01*
X158245023Y-121971404D01*
X158269214Y-121923023D01*
X158293404Y-121898833D01*
X158341785Y-121874642D01*
X158438547Y-121874642D01*
X158486928Y-121898833D01*
X159285214Y-121947214D02*
X159115880Y-121947214D01*
X159115880Y-122213309D02*
X159115880Y-121705309D01*
X159357785Y-121705309D01*
X159623880Y-122213309D02*
X159575500Y-122189119D01*
X159551309Y-122140738D01*
X159551309Y-121705309D01*
X160035119Y-122213309D02*
X160035119Y-121947214D01*
X160010928Y-121898833D01*
X159962547Y-121874642D01*
X159865785Y-121874642D01*
X159817404Y-121898833D01*
X160035119Y-122189119D02*
X159986738Y-122213309D01*
X159865785Y-122213309D01*
X159817404Y-122189119D01*
X159793214Y-122140738D01*
X159793214Y-122092357D01*
X159817404Y-122043976D01*
X159865785Y-122019785D01*
X159986738Y-122019785D01*
X160035119Y-121995595D01*
X160252833Y-122189119D02*
X160301214Y-122213309D01*
X160397976Y-122213309D01*
X160446357Y-122189119D01*
X160470547Y-122140738D01*
X160470547Y-122116547D01*
X160446357Y-122068166D01*
X160397976Y-122043976D01*
X160325404Y-122043976D01*
X160277023Y-122019785D01*
X160252833Y-121971404D01*
X160252833Y-121947214D01*
X160277023Y-121898833D01*
X160325404Y-121874642D01*
X160397976Y-121874642D01*
X160446357Y-121898833D01*
X160688261Y-122213309D02*
X160688261Y-121705309D01*
X160905976Y-122213309D02*
X160905976Y-121947214D01*
X160881785Y-121898833D01*
X160833404Y-121874642D01*
X160760833Y-121874642D01*
X160712452Y-121898833D01*
X160688261Y-121923023D01*
D11*
X147976166Y-120314357D02*
X147927785Y-120362738D01*
X147782642Y-120411119D01*
X147685880Y-120411119D01*
X147540738Y-120362738D01*
X147443976Y-120265976D01*
X147395595Y-120169214D01*
X147347214Y-119975690D01*
X147347214Y-119830547D01*
X147395595Y-119637023D01*
X147443976Y-119540261D01*
X147540738Y-119443500D01*
X147685880Y-119395119D01*
X147782642Y-119395119D01*
X147927785Y-119443500D01*
X147976166Y-119491880D01*
X148363214Y-120362738D02*
X148508357Y-120411119D01*
X148750261Y-120411119D01*
X148847023Y-120362738D01*
X148895404Y-120314357D01*
X148943785Y-120217595D01*
X148943785Y-120120833D01*
X148895404Y-120024071D01*
X148847023Y-119975690D01*
X148750261Y-119927309D01*
X148556738Y-119878928D01*
X148459976Y-119830547D01*
X148411595Y-119782166D01*
X148363214Y-119685404D01*
X148363214Y-119588642D01*
X148411595Y-119491880D01*
X148459976Y-119443500D01*
X148556738Y-119395119D01*
X148798642Y-119395119D01*
X148943785Y-119443500D01*
X152233690Y-118889780D02*
X153249690Y-118889780D01*
X153056166Y-120314357D02*
X153007785Y-120362738D01*
X152862642Y-120411119D01*
X152765880Y-120411119D01*
X152620738Y-120362738D01*
X152523976Y-120265976D01*
X152475595Y-120169214D01*
X152427214Y-119975690D01*
X152427214Y-119830547D01*
X152475595Y-119637023D01*
X152523976Y-119540261D01*
X152620738Y-119443500D01*
X152765880Y-119395119D01*
X152862642Y-119395119D01*
X153007785Y-119443500D01*
X153056166Y-119491880D01*
X153249690Y-118889780D02*
X154217309Y-118889780D01*
X153443214Y-120362738D02*
X153588357Y-120411119D01*
X153830261Y-120411119D01*
X153927023Y-120362738D01*
X153975404Y-120314357D01*
X154023785Y-120217595D01*
X154023785Y-120120833D01*
X153975404Y-120024071D01*
X153927023Y-119975690D01*
X153830261Y-119927309D01*
X153636738Y-119878928D01*
X153539976Y-119830547D01*
X153491595Y-119782166D01*
X153443214Y-119685404D01*
X153443214Y-119588642D01*
X153491595Y-119491880D01*
X153539976Y-119443500D01*
X153636738Y-119395119D01*
X153878642Y-119395119D01*
X154023785Y-119443500D01*
X128418166Y-95373976D02*
X128418166Y-95857785D01*
X128127880Y-95277214D02*
X129143880Y-95615880D01*
X128127880Y-95954547D01*
X128127880Y-96825404D02*
X128127880Y-96244833D01*
X128127880Y-96535119D02*
X129143880Y-96535119D01*
X128998738Y-96438357D01*
X128901976Y-96341595D01*
X128853595Y-96244833D01*
X128127880Y-97309214D02*
X128127880Y-97502738D01*
X128176261Y-97599500D01*
X128224642Y-97647880D01*
X128369785Y-97744642D01*
X128563309Y-97793023D01*
X128950357Y-97793023D01*
X129047119Y-97744642D01*
X129095500Y-97696261D01*
X129143880Y-97599500D01*
X129143880Y-97405976D01*
X129095500Y-97309214D01*
X129047119Y-97260833D01*
X128950357Y-97212452D01*
X128708452Y-97212452D01*
X128611690Y-97260833D01*
X128563309Y-97309214D01*
X128514928Y-97405976D01*
X128514928Y-97599500D01*
X128563309Y-97696261D01*
X128611690Y-97744642D01*
X128708452Y-97793023D01*
X129047119Y-98857404D02*
X129192261Y-99050928D01*
X129047119Y-99244452D01*
X129649220Y-100115309D02*
X129649220Y-101131309D01*
X128224642Y-100937785D02*
X128176261Y-100889404D01*
X128127880Y-100744261D01*
X128127880Y-100647500D01*
X128176261Y-100502357D01*
X128273023Y-100405595D01*
X128369785Y-100357214D01*
X128563309Y-100308833D01*
X128708452Y-100308833D01*
X128901976Y-100357214D01*
X128998738Y-100405595D01*
X129095500Y-100502357D01*
X129143880Y-100647500D01*
X129143880Y-100744261D01*
X129095500Y-100889404D01*
X129047119Y-100937785D01*
X129649220Y-101131309D02*
X129649220Y-102098928D01*
X128176261Y-101324833D02*
X128127880Y-101469976D01*
X128127880Y-101711880D01*
X128176261Y-101808642D01*
X128224642Y-101857023D01*
X128321404Y-101905404D01*
X128418166Y-101905404D01*
X128514928Y-101857023D01*
X128563309Y-101808642D01*
X128611690Y-101711880D01*
X128660071Y-101518357D01*
X128708452Y-101421595D01*
X128756833Y-101373214D01*
X128853595Y-101324833D01*
X128950357Y-101324833D01*
X129047119Y-101373214D01*
X129095500Y-101421595D01*
X129143880Y-101518357D01*
X129143880Y-101760261D01*
X129095500Y-101905404D01*
X129649220Y-102098928D02*
X129649220Y-103066547D01*
X129143880Y-102534357D02*
X129143880Y-102631119D01*
X129095500Y-102727880D01*
X129047119Y-102776261D01*
X128950357Y-102824642D01*
X128756833Y-102873023D01*
X128514928Y-102873023D01*
X128321404Y-102824642D01*
X128224642Y-102776261D01*
X128176261Y-102727880D01*
X128127880Y-102631119D01*
X128127880Y-102534357D01*
X128176261Y-102437595D01*
X128224642Y-102389214D01*
X128321404Y-102340833D01*
X128514928Y-102292452D01*
X128756833Y-102292452D01*
X128950357Y-102340833D01*
X129047119Y-102389214D01*
X129095500Y-102437595D01*
X129143880Y-102534357D01*
D12*
X131995976Y-67352333D02*
X132600738Y-66929000D01*
X131995976Y-66626619D02*
X133265976Y-66626619D01*
X133265976Y-67110428D01*
X133205500Y-67231380D01*
X133145023Y-67291857D01*
X133024071Y-67352333D01*
X132842642Y-67352333D01*
X132721690Y-67291857D01*
X132661214Y-67231380D01*
X132600738Y-67110428D01*
X132600738Y-66626619D01*
X133265976Y-68138523D02*
X133265976Y-68380428D01*
X133205500Y-68501380D01*
X133084547Y-68622333D01*
X132842642Y-68682809D01*
X132419309Y-68682809D01*
X132177404Y-68622333D01*
X132056452Y-68501380D01*
X131995976Y-68380428D01*
X131995976Y-68138523D01*
X132056452Y-68017571D01*
X132177404Y-67896619D01*
X132419309Y-67836142D01*
X132842642Y-67836142D01*
X133084547Y-67896619D01*
X133205500Y-68017571D01*
X133265976Y-68138523D01*
X131995976Y-69227095D02*
X133265976Y-69227095D01*
X132358833Y-69650428D01*
X133265976Y-70073761D01*
X131995976Y-70073761D01*
X132358833Y-71585666D02*
X132358833Y-72190428D01*
X131995976Y-71464714D02*
X133265976Y-71888047D01*
X131995976Y-72311380D01*
X131995976Y-73279000D02*
X133265976Y-73279000D01*
X132056452Y-73279000D02*
X131995976Y-73158047D01*
X131995976Y-72916142D01*
X132056452Y-72795190D01*
X132116928Y-72734714D01*
X132237880Y-72674238D01*
X132600738Y-72674238D01*
X132721690Y-72734714D01*
X132782166Y-72795190D01*
X132842642Y-72916142D01*
X132842642Y-73158047D01*
X132782166Y-73279000D01*
X131995976Y-74428047D02*
X132661214Y-74428047D01*
X132782166Y-74367571D01*
X132842642Y-74246619D01*
X132842642Y-74004714D01*
X132782166Y-73883761D01*
X132056452Y-74428047D02*
X131995976Y-74307095D01*
X131995976Y-74004714D01*
X132056452Y-73883761D01*
X132177404Y-73823285D01*
X132298357Y-73823285D01*
X132419309Y-73883761D01*
X132479785Y-74004714D01*
X132479785Y-74307095D01*
X132540261Y-74428047D01*
X132842642Y-75032809D02*
X131572642Y-75032809D01*
X132782166Y-75032809D02*
X132842642Y-75153761D01*
X132842642Y-75395666D01*
X132782166Y-75516619D01*
X132721690Y-75577095D01*
X132600738Y-75637571D01*
X132237880Y-75637571D01*
X132116928Y-75577095D01*
X132056452Y-75516619D01*
X131995976Y-75395666D01*
X131995976Y-75153761D01*
X132056452Y-75032809D01*
X132842642Y-76000428D02*
X132842642Y-76484238D01*
X133265976Y-76181857D02*
X132177404Y-76181857D01*
X132056452Y-76242333D01*
X131995976Y-76363285D01*
X131995976Y-76484238D01*
X132056452Y-77391380D02*
X131995976Y-77270428D01*
X131995976Y-77028523D01*
X132056452Y-76907571D01*
X132177404Y-76847095D01*
X132661214Y-76847095D01*
X132782166Y-76907571D01*
X132842642Y-77028523D01*
X132842642Y-77270428D01*
X132782166Y-77391380D01*
X132661214Y-77451857D01*
X132540261Y-77451857D01*
X132419309Y-76847095D01*
X131995976Y-77996142D02*
X132842642Y-77996142D01*
X132600738Y-77996142D02*
X132721690Y-78056619D01*
X132782166Y-78117095D01*
X132842642Y-78238047D01*
X132842642Y-78359000D01*
X132842642Y-79568523D02*
X132842642Y-80052333D01*
X131995976Y-79749952D02*
X133084547Y-79749952D01*
X133205500Y-79810428D01*
X133265976Y-79931380D01*
X133265976Y-80052333D01*
X131995976Y-80657095D02*
X132056452Y-80536142D01*
X132116928Y-80475666D01*
X132237880Y-80415190D01*
X132600738Y-80415190D01*
X132721690Y-80475666D01*
X132782166Y-80536142D01*
X132842642Y-80657095D01*
X132842642Y-80838523D01*
X132782166Y-80959476D01*
X132721690Y-81019952D01*
X132600738Y-81080428D01*
X132237880Y-81080428D01*
X132116928Y-81019952D01*
X132056452Y-80959476D01*
X131995976Y-80838523D01*
X131995976Y-80657095D01*
X131995976Y-81624714D02*
X132842642Y-81624714D01*
X132600738Y-81624714D02*
X132721690Y-81685190D01*
X132782166Y-81745666D01*
X132842642Y-81866619D01*
X132842642Y-81987571D01*
X133265976Y-83197095D02*
X133265976Y-83922809D01*
X131995976Y-83559952D02*
X133265976Y-83559952D01*
X132056452Y-84285666D02*
X131995976Y-84467095D01*
X131995976Y-84769476D01*
X132056452Y-84890428D01*
X132116928Y-84950904D01*
X132237880Y-85011380D01*
X132358833Y-85011380D01*
X132479785Y-84950904D01*
X132540261Y-84890428D01*
X132600738Y-84769476D01*
X132661214Y-84527571D01*
X132721690Y-84406619D01*
X132782166Y-84346142D01*
X132903119Y-84285666D01*
X133024071Y-84285666D01*
X133145023Y-84346142D01*
X133205500Y-84406619D01*
X133265976Y-84527571D01*
X133265976Y-84829952D01*
X133205500Y-85011380D01*
X132479785Y-85555666D02*
X132479785Y-86523285D01*
X133265976Y-87007095D02*
X133265976Y-87793285D01*
X132782166Y-87369952D01*
X132782166Y-87551380D01*
X132721690Y-87672333D01*
X132661214Y-87732809D01*
X132540261Y-87793285D01*
X132237880Y-87793285D01*
X132116928Y-87732809D01*
X132056452Y-87672333D01*
X131995976Y-87551380D01*
X131995976Y-87188523D01*
X132056452Y-87067571D01*
X132116928Y-87007095D01*
X131995976Y-89002809D02*
X131995976Y-88277095D01*
X131995976Y-88639952D02*
X133265976Y-88639952D01*
X133084547Y-88519000D01*
X132963595Y-88398047D01*
X132903119Y-88277095D01*
X133265976Y-89789000D02*
X133265976Y-89909952D01*
X133205500Y-90030904D01*
X133145023Y-90091380D01*
X133024071Y-90151857D01*
X132782166Y-90212333D01*
X132479785Y-90212333D01*
X132237880Y-90151857D01*
X132116928Y-90091380D01*
X132056452Y-90030904D01*
X131995976Y-89909952D01*
X131995976Y-89789000D01*
X132056452Y-89668047D01*
X132116928Y-89607571D01*
X132237880Y-89547095D01*
X132479785Y-89486619D01*
X132782166Y-89486619D01*
X133024071Y-89547095D01*
X133145023Y-89607571D01*
X133205500Y-89668047D01*
X133265976Y-89789000D01*
X133265976Y-90998523D02*
X133265976Y-91119476D01*
X133205500Y-91240428D01*
X133145023Y-91300904D01*
X133024071Y-91361380D01*
X132782166Y-91421857D01*
X132479785Y-91421857D01*
X132237880Y-91361380D01*
X132116928Y-91300904D01*
X132056452Y-91240428D01*
X131995976Y-91119476D01*
X131995976Y-90998523D01*
X132056452Y-90877571D01*
X132116928Y-90817095D01*
X132237880Y-90756619D01*
X132479785Y-90696142D01*
X132782166Y-90696142D01*
X133024071Y-90756619D01*
X133145023Y-90817095D01*
X133205500Y-90877571D01*
X133265976Y-90998523D01*
X129790976Y-73490666D02*
X131060976Y-73490666D01*
X131060976Y-73793047D01*
X131000500Y-73974476D01*
X130879547Y-74095428D01*
X130758595Y-74155904D01*
X130516690Y-74216380D01*
X130335261Y-74216380D01*
X130093357Y-74155904D01*
X129972404Y-74095428D01*
X129851452Y-73974476D01*
X129790976Y-73793047D01*
X129790976Y-73490666D01*
X129851452Y-75244476D02*
X129790976Y-75123523D01*
X129790976Y-74881619D01*
X129851452Y-74760666D01*
X129972404Y-74700190D01*
X130456214Y-74700190D01*
X130577166Y-74760666D01*
X130637642Y-74881619D01*
X130637642Y-75123523D01*
X130577166Y-75244476D01*
X130456214Y-75304952D01*
X130335261Y-75304952D01*
X130214309Y-74700190D01*
X129851452Y-75788761D02*
X129790976Y-75909714D01*
X129790976Y-76151619D01*
X129851452Y-76272571D01*
X129972404Y-76333047D01*
X130032880Y-76333047D01*
X130153833Y-76272571D01*
X130214309Y-76151619D01*
X130214309Y-75970190D01*
X130274785Y-75849238D01*
X130395738Y-75788761D01*
X130456214Y-75788761D01*
X130577166Y-75849238D01*
X130637642Y-75970190D01*
X130637642Y-76151619D01*
X130577166Y-76272571D01*
X129790976Y-76877333D02*
X130637642Y-76877333D01*
X131060976Y-76877333D02*
X131000500Y-76816857D01*
X130940023Y-76877333D01*
X131000500Y-76937809D01*
X131060976Y-76877333D01*
X130940023Y-76877333D01*
X130637642Y-78026380D02*
X129609547Y-78026380D01*
X129488595Y-77965904D01*
X129428119Y-77905428D01*
X129367642Y-77784476D01*
X129367642Y-77603047D01*
X129428119Y-77482095D01*
X129851452Y-78026380D02*
X129790976Y-77905428D01*
X129790976Y-77663523D01*
X129851452Y-77542571D01*
X129911928Y-77482095D01*
X130032880Y-77421619D01*
X130395738Y-77421619D01*
X130516690Y-77482095D01*
X130577166Y-77542571D01*
X130637642Y-77663523D01*
X130637642Y-77905428D01*
X130577166Y-78026380D01*
X130637642Y-78631142D02*
X129790976Y-78631142D01*
X130516690Y-78631142D02*
X130577166Y-78691619D01*
X130637642Y-78812571D01*
X130637642Y-78994000D01*
X130577166Y-79114952D01*
X130456214Y-79175428D01*
X129790976Y-79175428D01*
X129851452Y-80264000D02*
X129790976Y-80143047D01*
X129790976Y-79901142D01*
X129851452Y-79780190D01*
X129972404Y-79719714D01*
X130456214Y-79719714D01*
X130577166Y-79780190D01*
X130637642Y-79901142D01*
X130637642Y-80143047D01*
X130577166Y-80264000D01*
X130456214Y-80324476D01*
X130335261Y-80324476D01*
X130214309Y-79719714D01*
X129790976Y-81413047D02*
X131060976Y-81413047D01*
X129851452Y-81413047D02*
X129790976Y-81292095D01*
X129790976Y-81050190D01*
X129851452Y-80929238D01*
X129911928Y-80868761D01*
X130032880Y-80808285D01*
X130395738Y-80808285D01*
X130516690Y-80868761D01*
X130577166Y-80929238D01*
X130637642Y-81050190D01*
X130637642Y-81292095D01*
X130577166Y-81413047D01*
X129790976Y-82985428D02*
X131060976Y-82985428D01*
X130577166Y-82985428D02*
X130637642Y-83106380D01*
X130637642Y-83348285D01*
X130577166Y-83469238D01*
X130516690Y-83529714D01*
X130395738Y-83590190D01*
X130032880Y-83590190D01*
X129911928Y-83529714D01*
X129851452Y-83469238D01*
X129790976Y-83348285D01*
X129790976Y-83106380D01*
X129851452Y-82985428D01*
X130637642Y-84013523D02*
X129790976Y-84315904D01*
X130637642Y-84618285D02*
X129790976Y-84315904D01*
X129488595Y-84194952D01*
X129428119Y-84134476D01*
X129367642Y-84013523D01*
X127585976Y-71767095D02*
X128855976Y-71767095D01*
X127585976Y-72492809D01*
X128855976Y-72492809D01*
X127585976Y-73641857D02*
X128251214Y-73641857D01*
X128372166Y-73581380D01*
X128432642Y-73460428D01*
X128432642Y-73218523D01*
X128372166Y-73097571D01*
X127646452Y-73641857D02*
X127585976Y-73520904D01*
X127585976Y-73218523D01*
X127646452Y-73097571D01*
X127767404Y-73037095D01*
X127888357Y-73037095D01*
X128009309Y-73097571D01*
X128069785Y-73218523D01*
X128069785Y-73520904D01*
X128130261Y-73641857D01*
X128432642Y-74065190D02*
X128432642Y-74549000D01*
X128855976Y-74246619D02*
X127767404Y-74246619D01*
X127646452Y-74307095D01*
X127585976Y-74428047D01*
X127585976Y-74549000D01*
X127585976Y-74972333D02*
X128855976Y-74972333D01*
X127585976Y-75516619D02*
X128251214Y-75516619D01*
X128372166Y-75456142D01*
X128432642Y-75335190D01*
X128432642Y-75153761D01*
X128372166Y-75032809D01*
X128311690Y-74972333D01*
X127585976Y-76665666D02*
X128251214Y-76665666D01*
X128372166Y-76605190D01*
X128432642Y-76484238D01*
X128432642Y-76242333D01*
X128372166Y-76121380D01*
X127646452Y-76665666D02*
X127585976Y-76544714D01*
X127585976Y-76242333D01*
X127646452Y-76121380D01*
X127767404Y-76060904D01*
X127888357Y-76060904D01*
X128009309Y-76121380D01*
X128069785Y-76242333D01*
X128069785Y-76544714D01*
X128130261Y-76665666D01*
X128432642Y-77270428D02*
X127585976Y-77270428D01*
X128311690Y-77270428D02*
X128372166Y-77330904D01*
X128432642Y-77451857D01*
X128432642Y-77633285D01*
X128372166Y-77754238D01*
X128251214Y-77814714D01*
X127585976Y-77814714D01*
X127585976Y-78419476D02*
X128432642Y-78419476D01*
X128855976Y-78419476D02*
X128795500Y-78359000D01*
X128735023Y-78419476D01*
X128795500Y-78479952D01*
X128855976Y-78419476D01*
X128735023Y-78419476D01*
X127646452Y-79508047D02*
X127585976Y-79387095D01*
X127585976Y-79145190D01*
X127646452Y-79024238D01*
X127767404Y-78963761D01*
X128251214Y-78963761D01*
X128372166Y-79024238D01*
X128432642Y-79145190D01*
X128432642Y-79387095D01*
X128372166Y-79508047D01*
X128251214Y-79568523D01*
X128130261Y-79568523D01*
X128009309Y-78963761D01*
X127585976Y-80294238D02*
X127646452Y-80173285D01*
X127767404Y-80112809D01*
X128855976Y-80112809D01*
X127585976Y-82350428D02*
X127585976Y-81745666D01*
X128855976Y-81745666D01*
X127646452Y-83257571D02*
X127585976Y-83136619D01*
X127585976Y-82894714D01*
X127646452Y-82773761D01*
X127767404Y-82713285D01*
X128251214Y-82713285D01*
X128372166Y-82773761D01*
X128432642Y-82894714D01*
X128432642Y-83136619D01*
X128372166Y-83257571D01*
X128251214Y-83318047D01*
X128130261Y-83318047D01*
X128009309Y-82713285D01*
X128432642Y-83741380D02*
X127585976Y-83983285D01*
X128190738Y-84225190D01*
X127585976Y-84467095D01*
X128432642Y-84709000D01*
X127585976Y-85192809D02*
X128432642Y-85192809D01*
X128855976Y-85192809D02*
X128795500Y-85132333D01*
X128735023Y-85192809D01*
X128795500Y-85253285D01*
X128855976Y-85192809D01*
X128735023Y-85192809D01*
X127646452Y-85737095D02*
X127585976Y-85858047D01*
X127585976Y-86099952D01*
X127646452Y-86220904D01*
X127767404Y-86281380D01*
X127827880Y-86281380D01*
X127948833Y-86220904D01*
X128009309Y-86099952D01*
X128009309Y-85918523D01*
X128069785Y-85797571D01*
X128190738Y-85737095D01*
X128251214Y-85737095D01*
X128372166Y-85797571D01*
X128432642Y-85918523D01*
X128432642Y-86099952D01*
X128372166Y-86220904D01*
D13*
X142267000Y-144943500D02*
X142267000Y-139703500D01*
X145007000Y-144943500D02*
X145007000Y-139703500D01*
X142267000Y-144943500D02*
X145007000Y-144943500D01*
X142267000Y-139703500D02*
X145007000Y-139703500D01*
X140679500Y-114487000D02*
X140679500Y-109247000D01*
X143419500Y-114487000D02*
X143419500Y-109247000D01*
X140679500Y-114487000D02*
X143419500Y-114487000D01*
X140679500Y-109247000D02*
X143419500Y-109247000D01*
X129988000Y-95253500D02*
X131318000Y-95253500D01*
X129988000Y-96583500D02*
X129988000Y-95253500D01*
X129988000Y-97853500D02*
X132648000Y-97853500D01*
X132648000Y-97853500D02*
X132648000Y-102993500D01*
X129988000Y-97853500D02*
X129988000Y-102993500D01*
X129988000Y-102993500D02*
X132648000Y-102993500D01*
X146752000Y-125853500D02*
X146752000Y-124523500D01*
X148082000Y-125853500D02*
X146752000Y-125853500D01*
X146752000Y-123253500D02*
X146752000Y-120653500D01*
X149352000Y-123253500D02*
X146752000Y-123253500D01*
X149352000Y-125853500D02*
X149352000Y-123253500D01*
X146752000Y-120653500D02*
X154492000Y-120653500D01*
X149352000Y-125853500D02*
X154492000Y-125853500D01*
X154492000Y-125853500D02*
X154492000Y-120653500D01*
X145482000Y-144963500D02*
X155762000Y-144963500D01*
X145482000Y-126943500D02*
X145482000Y-144963500D01*
X155762000Y-126943500D02*
X145482000Y-126943500D01*
X155762000Y-144963500D02*
X155762000Y-126943500D01*
X147972000Y-144903500D02*
X149622000Y-144903500D01*
X147972000Y-127003500D02*
X147972000Y-144903500D01*
X153272000Y-127003500D02*
X147972000Y-127003500D01*
X153272000Y-144903500D02*
X153272000Y-127003500D01*
X151622000Y-144903500D02*
X153272000Y-144903500D01*
X149622000Y-144903500D02*
G75*
G02*
X151622000Y-144903500I1000000J0D01*
G01*
X145482000Y-114483500D02*
X163382000Y-114483500D01*
X145482000Y-73603500D02*
X145482000Y-114483500D01*
X163382000Y-73603500D02*
X145482000Y-73603500D01*
X163382000Y-114483500D02*
X163382000Y-73603500D01*
X147972000Y-114423500D02*
X153432000Y-114423500D01*
X147972000Y-73663500D02*
X147972000Y-114423500D01*
X160892000Y-73663500D02*
X147972000Y-73663500D01*
X160892000Y-114423500D02*
X160892000Y-73663500D01*
X155432000Y-114423500D02*
X160892000Y-114423500D01*
X153432000Y-114423500D02*
G75*
G02*
X155432000Y-114423500I1000000J0D01*
G01*
D14*
X140041000Y-60693500D02*
X135041000Y-60693500D01*
X140041000Y-142633500D02*
X140041000Y-60693500D01*
X135041000Y-142633500D02*
X135041000Y-60693500D01*
X140041000Y-142633500D02*
X135041000Y-142633500D01*
X143994142Y-138660166D02*
X144041761Y-138707785D01*
X144089380Y-138850642D01*
X144089380Y-138945880D01*
X144041761Y-139088738D01*
X143946523Y-139183976D01*
X143851285Y-139231595D01*
X143660809Y-139279214D01*
X143517952Y-139279214D01*
X143327476Y-139231595D01*
X143232238Y-139183976D01*
X143137000Y-139088738D01*
X143089380Y-138945880D01*
X143089380Y-138850642D01*
X143137000Y-138707785D01*
X143184619Y-138660166D01*
X143184619Y-138279214D02*
X143137000Y-138231595D01*
X143089380Y-138136357D01*
X143089380Y-137898261D01*
X143137000Y-137803023D01*
X143184619Y-137755404D01*
X143279857Y-137707785D01*
X143375095Y-137707785D01*
X143517952Y-137755404D01*
X144089380Y-138326833D01*
X144089380Y-137707785D01*
X142406642Y-108116666D02*
X142454261Y-108164285D01*
X142501880Y-108307142D01*
X142501880Y-108402380D01*
X142454261Y-108545238D01*
X142359023Y-108640476D01*
X142263785Y-108688095D01*
X142073309Y-108735714D01*
X141930452Y-108735714D01*
X141739976Y-108688095D01*
X141644738Y-108640476D01*
X141549500Y-108545238D01*
X141501880Y-108402380D01*
X141501880Y-108307142D01*
X141549500Y-108164285D01*
X141597119Y-108116666D01*
X142501880Y-107164285D02*
X142501880Y-107735714D01*
X142501880Y-107450000D02*
X141501880Y-107450000D01*
X141644738Y-107545238D01*
X141739976Y-107640476D01*
X141787595Y-107735714D01*
X130984666Y-93705880D02*
X130984666Y-94420166D01*
X130937047Y-94563023D01*
X130841809Y-94658261D01*
X130698952Y-94705880D01*
X130603714Y-94705880D01*
X131413238Y-93801119D02*
X131460857Y-93753500D01*
X131556095Y-93705880D01*
X131794190Y-93705880D01*
X131889428Y-93753500D01*
X131937047Y-93801119D01*
X131984666Y-93896357D01*
X131984666Y-93991595D01*
X131937047Y-94134452D01*
X131365619Y-94705880D01*
X131984666Y-94705880D01*
X144827666Y-122705880D02*
X144827666Y-123420166D01*
X144780047Y-123563023D01*
X144684809Y-123658261D01*
X144541952Y-123705880D01*
X144446714Y-123705880D01*
X145208619Y-122705880D02*
X145827666Y-122705880D01*
X145494333Y-123086833D01*
X145637190Y-123086833D01*
X145732428Y-123134452D01*
X145780047Y-123182071D01*
X145827666Y-123277309D01*
X145827666Y-123515404D01*
X145780047Y-123610642D01*
X145732428Y-123658261D01*
X145637190Y-123705880D01*
X145351476Y-123705880D01*
X145256238Y-123658261D01*
X145208619Y-123610642D01*
X156337095Y-144676880D02*
X156337095Y-145486404D01*
X156384714Y-145581642D01*
X156432333Y-145629261D01*
X156527571Y-145676880D01*
X156718047Y-145676880D01*
X156813285Y-145629261D01*
X156860904Y-145581642D01*
X156908523Y-145486404D01*
X156908523Y-144676880D01*
X157813285Y-144676880D02*
X157622809Y-144676880D01*
X157527571Y-144724500D01*
X157479952Y-144772119D01*
X157384714Y-144914976D01*
X157337095Y-145105452D01*
X157337095Y-145486404D01*
X157384714Y-145581642D01*
X157432333Y-145629261D01*
X157527571Y-145676880D01*
X157718047Y-145676880D01*
X157813285Y-145629261D01*
X157860904Y-145581642D01*
X157908523Y-145486404D01*
X157908523Y-145248309D01*
X157860904Y-145153071D01*
X157813285Y-145105452D01*
X157718047Y-145057833D01*
X157527571Y-145057833D01*
X157432333Y-145105452D01*
X157384714Y-145153071D01*
X157337095Y-145248309D01*
X153670095Y-112101380D02*
X153670095Y-112910904D01*
X153717714Y-113006142D01*
X153765333Y-113053761D01*
X153860571Y-113101380D01*
X154051047Y-113101380D01*
X154146285Y-113053761D01*
X154193904Y-113006142D01*
X154241523Y-112910904D01*
X154241523Y-112101380D01*
X155193904Y-112101380D02*
X154717714Y-112101380D01*
X154670095Y-112577571D01*
X154717714Y-112529952D01*
X154812952Y-112482333D01*
X155051047Y-112482333D01*
X155146285Y-112529952D01*
X155193904Y-112577571D01*
X155241523Y-112672809D01*
X155241523Y-112910904D01*
X155193904Y-113006142D01*
X155146285Y-113053761D01*
X155051047Y-113101380D01*
X154812952Y-113101380D01*
X154717714Y-113053761D01*
X154670095Y-113006142D01*
X130429095Y-57275880D02*
X130429095Y-56275880D01*
X130429095Y-56752071D02*
X131000523Y-56752071D01*
X131000523Y-57275880D02*
X131000523Y-56275880D01*
X132000523Y-57275880D02*
X131429095Y-57275880D01*
X131714809Y-57275880D02*
X131714809Y-56275880D01*
X131619571Y-56418738D01*
X131524333Y-56513976D01*
X131429095Y-56561595D01*
X130429095Y-137285880D02*
X130429095Y-136285880D01*
X130429095Y-136762071D02*
X131000523Y-136762071D01*
X131000523Y-137285880D02*
X131000523Y-136285880D01*
X131429095Y-136381119D02*
X131476714Y-136333500D01*
X131571952Y-136285880D01*
X131810047Y-136285880D01*
X131905285Y-136333500D01*
X131952904Y-136381119D01*
X132000523Y-136476357D01*
X132000523Y-136571595D01*
X131952904Y-136714452D01*
X131381476Y-137285880D01*
X132000523Y-137285880D01*
X137207666Y-58824880D02*
X137207666Y-59539166D01*
X137160047Y-59682023D01*
X137064809Y-59777261D01*
X136921952Y-59824880D01*
X136826714Y-59824880D01*
X138207666Y-59824880D02*
X137636238Y-59824880D01*
X137921952Y-59824880D02*
X137921952Y-58824880D01*
X137826714Y-58967738D01*
X137731476Y-59062976D01*
X137636238Y-59110595D01*
M02*
