M48
INCH,TZ
T1C0.0118
T2C0.0315
T3C0.0394
T4C0.0402
T5C0.1260
%
G90
G05
T1
X56823Y-39525
X56823Y-48525
X57050Y-38525
X58350Y-42025
X58575Y-38025
X58750Y-54525
X59550Y-50525
X59554Y-53775
X59700Y-26525
X59800Y-44525
X59800Y-56525
X60075Y-52525
X60075Y-53525
X61475Y-37025
X61475Y-44525
X61725Y-39025
X61725Y-43525
X61950Y-40025
X61951Y-42525
X62175Y-41525
X62175Y-43025
X62421Y-37525
X62421Y-44025
X62648Y-45025
X62650Y-35525
X62875Y-38525
X62875Y-46025
X63125Y-39525
X63125Y-47025
T2
X55925Y-43550
X55925Y-44534
X56550Y-55541
X56550Y-56525
X57800Y-29525
X57800Y-30525
X57800Y-31525
X57800Y-32525
X57800Y-33525
X57800Y-34525
X57800Y-35525
X57800Y-36525
X57800Y-37525
X57800Y-38525
X57800Y-39525
X57800Y-40525
X57800Y-41525
X57800Y-42525
X57800Y-43525
X57800Y-44525
X63800Y-29525
X63800Y-30525
X63800Y-31525
X63800Y-32525
X63800Y-33525
X63800Y-34525
X63800Y-35525
X63800Y-36525
X63800Y-37525
X63800Y-38525
X63800Y-39525
X63800Y-40525
X63800Y-41525
X63800Y-42525
X63800Y-43525
X63800Y-44525
X57800Y-50525
X57800Y-51525
X57800Y-52525
X57800Y-53525
X57800Y-54525
X57800Y-55525
X57800Y-56525
X60800Y-50525
X60800Y-51525
X60800Y-52525
X60800Y-53525
X60800Y-54525
X60800Y-55525
X60800Y-56525
T3
X58300Y-48025
X58300Y-49025
X59300Y-48025
X59300Y-49025
X60300Y-48025
X60300Y-49025
X51700Y-38025
X51700Y-39025
X51700Y-40025
T4
X53650Y-24525
X53650Y-25525
X53650Y-26525
X53650Y-27525
X53650Y-28525
X53650Y-29525
X53650Y-30525
X53650Y-31525
X53650Y-32525
X53650Y-33525
X53650Y-34525
X53650Y-35525
X53650Y-36525
X53650Y-37525
X53650Y-38525
X53650Y-39525
X53650Y-40525
X53650Y-41525
X53650Y-42525
X53650Y-43525
X53650Y-44525
X53650Y-45525
X53650Y-46525
X53650Y-47525
X53650Y-48525
X53650Y-49525
X53650Y-50525
X53650Y-51525
X53650Y-52525
X53650Y-53525
X53650Y-54525
X53650Y-55525
X54650Y-24525
X54650Y-25525
X54650Y-26525
X54650Y-27525
X54650Y-28525
X54650Y-29525
X54650Y-30525
X54650Y-31525
X54650Y-32525
X54650Y-33525
X54650Y-34525
X54650Y-35525
X54650Y-36525
X54650Y-37525
X54650Y-38525
X54650Y-39525
X54650Y-40525
X54650Y-41525
X54650Y-42525
X54650Y-43525
X54650Y-44525
X54650Y-45525
X54650Y-46525
X54650Y-47525
X54650Y-48525
X54650Y-49525
X54650Y-50525
X54650Y-51525
X54650Y-52525
X54650Y-53525
X54650Y-54525
X54650Y-55525
T5
X51650Y-55525
X51650Y-24025
T0
M30
