G04 #@! TF.GenerationSoftware,KiCad,Pcbnew,5.1.7*
G04 #@! TF.CreationDate,2020-11-27T22:32:44-08:00*
G04 #@! TF.ProjectId,PC104-ROM,50433130-342d-4524-9f4d-2e6b69636164,rev?*
G04 #@! TF.SameCoordinates,Original*
G04 #@! TF.FileFunction,Soldermask,Bot*
G04 #@! TF.FilePolarity,Negative*
%FSLAX46Y46*%
G04 Gerber Fmt 4.6, Leading zero omitted, Abs format (unit mm)*
G04 Created by KiCad (PCBNEW 5.1.7) date 2020-11-27 22:32:44*
%MOMM*%
%LPD*%
G01*
G04 APERTURE LIST*
%ADD10C,1.600000*%
%ADD11O,1.700000X1.700000*%
%ADD12R,1.700000X1.700000*%
%ADD13O,1.600000X1.600000*%
%ADD14R,1.600000X1.600000*%
%ADD15C,6.400000*%
%ADD16C,1.720000*%
G04 APERTURE END LIST*
D10*
X143637000Y-141073500D03*
X143637000Y-143573500D03*
X142049500Y-110617000D03*
X142049500Y-113117000D03*
D11*
X131318000Y-101663500D03*
X131318000Y-99123500D03*
D12*
X131318000Y-96583500D03*
D11*
X153162000Y-121983500D03*
X153162000Y-124523500D03*
X150622000Y-121983500D03*
X150622000Y-124523500D03*
X148082000Y-121983500D03*
D12*
X148082000Y-124523500D03*
D13*
X146812000Y-143573500D03*
X154432000Y-128333500D03*
X146812000Y-141033500D03*
X154432000Y-130873500D03*
X146812000Y-138493500D03*
X154432000Y-133413500D03*
X146812000Y-135953500D03*
X154432000Y-135953500D03*
X146812000Y-133413500D03*
X154432000Y-138493500D03*
X146812000Y-130873500D03*
X154432000Y-141033500D03*
X146812000Y-128333500D03*
D14*
X154432000Y-143573500D03*
D13*
X146812000Y-113093500D03*
X162052000Y-74993500D03*
X146812000Y-110553500D03*
X162052000Y-77533500D03*
X146812000Y-108013500D03*
X162052000Y-80073500D03*
X146812000Y-105473500D03*
X162052000Y-82613500D03*
X146812000Y-102933500D03*
X162052000Y-85153500D03*
X146812000Y-100393500D03*
X162052000Y-87693500D03*
X146812000Y-97853500D03*
X162052000Y-90233500D03*
X146812000Y-95313500D03*
X162052000Y-92773500D03*
X146812000Y-92773500D03*
X162052000Y-95313500D03*
X146812000Y-90233500D03*
X162052000Y-97853500D03*
X146812000Y-87693500D03*
X162052000Y-100393500D03*
X146812000Y-85153500D03*
X162052000Y-102933500D03*
X146812000Y-82613500D03*
X162052000Y-105473500D03*
X146812000Y-80073500D03*
X162052000Y-108013500D03*
X146812000Y-77533500D03*
X162052000Y-110553500D03*
X146812000Y-74993500D03*
D14*
X162052000Y-113093500D03*
D15*
X131191000Y-61023500D03*
X131191000Y-141033500D03*
D16*
X138811000Y-141033500D03*
X138811000Y-138493500D03*
X138811000Y-135953500D03*
X138811000Y-133413500D03*
X138811000Y-130873500D03*
X138811000Y-128333500D03*
X138811000Y-125793500D03*
X138811000Y-123253500D03*
X138811000Y-120713500D03*
X138811000Y-118173500D03*
X138811000Y-115633500D03*
X138811000Y-113093500D03*
X138811000Y-110553500D03*
X138811000Y-108013500D03*
X138811000Y-105473500D03*
X138811000Y-102933500D03*
X138811000Y-100393500D03*
X138811000Y-97853500D03*
X138811000Y-95313500D03*
X138811000Y-92773500D03*
X138811000Y-90233500D03*
X138811000Y-87693500D03*
X138811000Y-85153500D03*
X138811000Y-82613500D03*
X138811000Y-80073500D03*
X138811000Y-77533500D03*
X138811000Y-74993500D03*
X138811000Y-72453500D03*
X138811000Y-69913500D03*
X138811000Y-67373500D03*
X138811000Y-64833500D03*
X138811000Y-62293500D03*
X136271000Y-141033500D03*
X136271000Y-138493500D03*
X136271000Y-135953500D03*
X136271000Y-133413500D03*
X136271000Y-130873500D03*
X136271000Y-128333500D03*
X136271000Y-125793500D03*
X136271000Y-123253500D03*
X136271000Y-120713500D03*
X136271000Y-118173500D03*
X136271000Y-115633500D03*
X136271000Y-113093500D03*
X136271000Y-110553500D03*
X136271000Y-108013500D03*
X136271000Y-105473500D03*
X136271000Y-102933500D03*
X136271000Y-100393500D03*
X136271000Y-97853500D03*
X136271000Y-95313500D03*
X136271000Y-92773500D03*
X136271000Y-90233500D03*
X136271000Y-87693500D03*
X136271000Y-85153500D03*
X136271000Y-82613500D03*
X136271000Y-80073500D03*
X136271000Y-77533500D03*
X136271000Y-74993500D03*
X136271000Y-72453500D03*
X136271000Y-69913500D03*
X136271000Y-67373500D03*
X136271000Y-64833500D03*
X136271000Y-62293500D03*
M02*
